<svg width="104" height="24" viewBox="0 0 104 24" fill="none" xmlns="http://www.w3.org/2000/svg">
<path d="M15.12 5.32003H17V2.14003C16.0898 2.04538 15.1752 1.99865 14.26 2.00003C11.54 2.00003 9.68 3.66003 9.68 6.70003V9.32003H6.61V12.88H9.68V22H13.36V12.88H16.42L16.88 9.32003H13.36V7.05003C13.36 6.00003 13.64 5.32003 15.12 5.32003Z" fill="#F5EFDB"/>
<path d="M62.9912 3.95021C62.9913 3.77357 62.9446 3.60007 62.8559 3.44735C62.7671 3.29464 62.6395 3.16817 62.4859 3.08084C62.3324 2.9935 62.1585 2.94842 61.9819 2.95017C61.8052 2.95193 61.6322 3.00046 61.4805 3.09083C60.8952 3.43921 60.265 3.70601 59.6075 3.88383C58.6684 3.07806 57.4708 2.63713 56.2335 2.64164C54.876 2.6432 53.5724 3.17223 52.5977 4.11702C51.623 5.06181 51.0537 6.3484 51.0098 7.70512C48.3338 7.27838 45.9085 5.88164 44.1963 3.78126C44.0931 3.65609 43.9614 3.55757 43.8122 3.494C43.6629 3.43043 43.5006 3.40368 43.3389 3.41601C43.1772 3.42932 43.0213 3.4818 42.8845 3.56892C42.7477 3.65603 42.6341 3.77516 42.5537 3.91601C42.1412 4.63582 41.9043 5.44276 41.8623 6.27131C41.8202 7.09986 41.9741 7.92666 42.3115 8.68456L42.3096 8.68651C42.1579 8.77991 42.0328 8.91066 41.9461 9.06625C41.8594 9.22185 41.8141 9.39708 41.8144 9.57519C41.8126 9.72211 41.8214 9.86898 41.8408 10.0146C41.943 11.2729 42.5006 12.4507 43.4092 13.3271C43.3475 13.4446 43.3099 13.5731 43.2985 13.7052C43.2871 13.8373 43.3022 13.9704 43.3428 14.0967C43.7389 15.3308 44.5813 16.3727 45.7051 17.0185C44.5633 17.46 43.3305 17.614 42.1152 17.4668C41.8903 17.4386 41.6625 17.4876 41.4691 17.6059C41.2757 17.7242 41.1283 17.9047 41.0509 18.1178C40.9736 18.3309 40.971 18.5639 41.0436 18.7787C41.1161 18.9935 41.2595 19.1772 41.4502 19.2998C43.5403 20.646 45.9739 21.3617 48.46 21.3613C51.2793 21.393 54.03 20.4921 56.2842 18.7988C58.5385 17.1054 60.17 14.7145 60.9248 11.998C61.2779 10.8146 61.4581 9.58648 61.46 8.35157C61.46 8.28614 61.46 8.21876 61.459 8.15138C61.9811 7.58831 62.3856 6.92668 62.6487 6.20527C62.9118 5.48387 63.0282 4.7172 62.9912 3.95021ZM59.6846 7.16212C59.5194 7.35746 59.4358 7.60891 59.4512 7.86427C59.4609 8.02927 59.46 8.19527 59.46 8.35157C59.4579 9.39511 59.305 10.4329 59.0059 11.4326C58.3894 13.744 57.015 15.7817 55.1029 17.2192C53.1909 18.6568 50.8517 19.4111 48.46 19.3613C47.6009 19.3616 46.7447 19.2606 45.9092 19.0606C46.9746 18.7172 47.9708 18.1879 48.8516 17.4971C49.0138 17.3693 49.1326 17.1945 49.1915 16.9967C49.2504 16.7988 49.2467 16.5875 49.1808 16.3918C49.1149 16.1961 48.99 16.0257 48.8234 15.9038C48.6567 15.7819 48.4564 15.7145 48.25 15.7109C47.4188 15.698 46.6251 15.363 46.0361 14.7764C46.1855 14.7481 46.334 14.7129 46.4815 14.6709C46.6975 14.6094 46.8865 14.477 47.0181 14.295C47.1497 14.1131 47.2163 13.8921 47.207 13.6677C47.1978 13.4433 47.1133 13.2285 46.9671 13.058C46.821 12.8874 46.6217 12.7711 46.4014 12.7275C45.9189 12.6323 45.4649 12.427 45.0747 12.1277C44.6845 11.8284 44.3685 11.4432 44.1514 11.002C44.3321 11.0266 44.514 11.0419 44.6963 11.0479C44.9129 11.0511 45.1249 10.9854 45.3017 10.8603C45.4784 10.7351 45.6108 10.5569 45.6797 10.3516C45.7457 10.1443 45.7423 9.92123 45.67 9.7161C45.5978 9.51096 45.4606 9.33499 45.2793 9.21485C44.8394 8.92182 44.4791 8.52427 44.2307 8.0578C43.9822 7.59134 43.8533 7.07052 43.8555 6.54201C43.8555 6.47561 43.8574 6.4092 43.8613 6.34377C46.1026 8.43402 49.0097 9.66621 52.0703 9.82326C52.2248 9.82934 52.3787 9.80024 52.5203 9.73816C52.6619 9.67607 52.7875 9.58262 52.8877 9.46486C52.9869 9.34596 53.0571 9.20566 53.0929 9.05501C53.1286 8.90437 53.1289 8.74748 53.0937 8.5967C53.0365 8.35806 53.0074 8.11357 53.0068 7.86818C53.0077 7.01271 53.348 6.19254 53.9529 5.58764C54.5578 4.98274 55.3779 4.64251 56.2334 4.64161C56.6735 4.64043 57.1091 4.7305 57.5127 4.90615C57.9163 5.0818 58.279 5.3392 58.5781 5.66212C58.6935 5.7862 58.8386 5.87871 58.9998 5.93085C59.161 5.98299 59.3328 5.99303 59.499 5.96001C59.9098 5.88006 60.3147 5.7724 60.7109 5.63775C60.4406 6.19072 60.0953 6.70369 59.6846 7.16212Z" fill="#F5EFDB"/>
<path d="M97.34 5.46C97.1027 5.46 96.8707 5.53038 96.6733 5.66224C96.476 5.79409 96.3222 5.98151 96.2313 6.20078C96.1405 6.42005 96.1168 6.66133 96.1631 6.89411C96.2094 7.12689 96.3236 7.34071 96.4915 7.50853C96.6593 7.67635 96.8731 7.79064 97.1059 7.83694C97.3387 7.88324 97.5799 7.85948 97.7992 7.76866C98.0185 7.67783 98.2059 7.52402 98.3378 7.32668C98.4696 7.12935 98.54 6.89734 98.54 6.66C98.54 6.34174 98.4136 6.03652 98.1885 5.81147C97.9635 5.58643 97.6583 5.46 97.34 5.46ZM101.94 7.88C101.921 7.0503 101.765 6.2294 101.48 5.45C101.226 4.78313 100.83 4.17928 100.32 3.68C99.8248 3.16743 99.2196 2.77418 98.55 2.53C97.7727 2.23616 96.9508 2.07721 96.12 2.06C95.06 2 94.72 2 92 2C89.28 2 88.94 2 87.88 2.06C87.0492 2.07721 86.2273 2.23616 85.45 2.53C84.7817 2.77665 84.1769 3.16956 83.68 3.68C83.1674 4.17518 82.7742 4.78044 82.53 5.45C82.2362 6.22734 82.0772 7.04915 82.06 7.88C82 8.94 82 9.28 82 12C82 14.72 82 15.06 82.06 16.12C82.0772 16.9508 82.2362 17.7727 82.53 18.55C82.7742 19.2196 83.1674 19.8248 83.68 20.32C84.1769 20.8304 84.7817 21.2234 85.45 21.47C86.2273 21.7638 87.0492 21.9228 87.88 21.94C88.94 22 89.28 22 92 22C94.72 22 95.06 22 96.12 21.94C96.9508 21.9228 97.7727 21.7638 98.55 21.47C99.2196 21.2258 99.8248 20.8326 100.32 20.32C100.832 19.8226 101.228 19.2182 101.48 18.55C101.765 17.7706 101.921 16.9497 101.94 16.12C101.94 15.06 102 14.72 102 12C102 9.28 102 8.94 101.94 7.88ZM100.14 16C100.133 16.6348 100.018 17.2637 99.8 17.86C99.6403 18.2952 99.3839 18.6884 99.05 19.01C98.7256 19.3405 98.3332 19.5964 97.9 19.76C97.3037 19.9778 96.6748 20.0927 96.04 20.1C95.04 20.15 94.67 20.16 92.04 20.16C89.41 20.16 89.04 20.16 88.04 20.1C87.3809 20.1123 86.7246 20.0109 86.1 19.8C85.6858 19.6281 85.3114 19.3728 85 19.05C84.6681 18.7287 84.4148 18.3352 84.26 17.9C84.0159 17.2952 83.8804 16.6519 83.86 16C83.86 15 83.8 14.63 83.8 12C83.8 9.37 83.8 9 83.86 8C83.8645 7.35106 83.983 6.70795 84.21 6.1C84.386 5.67791 84.6563 5.30166 85 5C85.3038 4.65617 85.6793 4.3831 86.1 4.2C86.7096 3.98004 87.352 3.86508 88 3.86C89 3.86 89.37 3.8 92 3.8C94.63 3.8 95 3.8 96 3.86C96.6348 3.86728 97.2637 3.98225 97.86 4.2C98.3144 4.36865 98.7223 4.64285 99.05 5C99.3777 5.30718 99.6338 5.68273 99.8 6.1C100.022 6.70893 100.137 7.35178 100.14 8C100.19 9 100.2 9.37 100.2 12C100.2 14.63 100.19 15 100.14 16ZM92 6.87C90.9858 6.87198 89.995 7.17453 89.1527 7.73942C88.3103 8.30431 87.6544 9.1062 87.2676 10.0438C86.8809 10.9813 86.7807 12.0125 86.9798 13.0069C87.1789 14.0014 87.6682 14.9145 88.3861 15.631C89.1039 16.3474 90.018 16.835 91.0129 17.0321C92.0077 17.2293 93.0387 17.1271 93.9755 16.7385C94.9123 16.35 95.7129 15.6924 96.2761 14.849C96.8394 14.0056 97.14 13.0142 97.14 12C97.1413 11.3251 97.0092 10.6566 96.7512 10.033C96.4933 9.40931 96.1146 8.84281 95.6369 8.36605C95.1592 7.88929 94.5919 7.51168 93.9678 7.25493C93.3436 6.99818 92.6749 6.86736 92 6.87ZM92 15.33C91.3414 15.33 90.6976 15.1347 90.15 14.7688C89.6023 14.4029 89.1755 13.8828 88.9235 13.2743C88.6714 12.6659 88.6055 11.9963 88.734 11.3503C88.8625 10.7044 89.1796 10.111 89.6453 9.64533C90.111 9.17963 90.7044 8.86247 91.3503 8.73398C91.9963 8.6055 92.6659 8.67144 93.2743 8.92348C93.8828 9.17552 94.4029 9.60234 94.7688 10.15C95.1347 10.6976 95.33 11.3414 95.33 12C95.33 12.4373 95.2439 12.8703 95.0765 13.2743C94.9092 13.6784 94.6639 14.0454 94.3547 14.3547C94.0454 14.6639 93.6784 14.9092 93.2743 15.0765C92.8703 15.2439 92.4373 15.33 92 15.33Z" fill="#F5EFDB"/>
</svg>
